# Blender 4.4.3
# www.blender.org
mtllib heightmap.mtl
o Plane
v 0.000000 0.000000 1.000000
v 1.000000 0.000000 1.000000
v 0.000000 0.000000 0.000000
v 1.000000 0.000000 0.000000
v 0.500000 0.067237 0.500000
v 1.000000 0.000000 1.000000
v 2.000000 0.000000 1.000000
v 1.000000 0.000000 0.000000
v 2.000000 0.000000 0.000000
v 1.500000 0.067237 0.500000
v 2.000000 0.000000 1.000000
v 3.000000 0.000000 1.000000
v 2.000000 0.000000 0.000000
v 3.000000 0.000000 0.000000
v 2.500000 0.067237 0.500000
v 3.000000 0.000000 1.000000
v 4.000000 0.000000 1.000000
v 3.000000 0.000000 0.000000
v 4.000000 0.000000 0.000000
v 3.500000 0.067237 0.500000
v 4.000000 0.000000 1.000000
v 5.000000 0.000000 1.000000
v 4.000000 0.000000 0.000000
v 5.000000 0.000000 0.000000
v 4.500000 0.067237 0.500000
v 5.000000 0.000000 1.000000
v 6.000000 0.000000 1.000000
v 5.000000 0.000000 0.000000
v 6.000000 0.000000 0.000000
v 5.500000 0.067237 0.500000
v 6.000000 0.000000 1.000000
v 7.000000 0.000000 1.000000
v 6.000000 0.000000 0.000000
v 7.000000 0.000000 0.000000
v 6.500000 0.067237 0.500000
v 0.000000 0.000000 2.000000
v 1.000000 0.000000 2.000000
v 0.000000 0.000000 1.000000
v 1.000000 0.000000 1.000000
v 0.500000 0.067237 1.500000
v 1.000000 0.000000 2.000000
v 2.000000 0.000000 2.000000
v 1.000000 0.000000 1.000000
v 2.000000 0.000000 1.000000
v 1.500000 0.067237 1.500000
v 2.000000 0.000000 2.000000
v 3.000000 0.000000 2.000000
v 2.000000 0.000000 1.000000
v 3.000000 0.000000 1.000000
v 2.500000 0.067237 1.500000
v 3.000000 0.000000 2.000000
v 4.000000 0.000000 2.000000
v 3.000000 0.000000 1.000000
v 4.000000 0.000000 1.000000
v 3.500000 0.067237 1.500000
v 4.000000 0.000000 2.000000
v 5.000000 0.000000 2.000000
v 4.000000 0.000000 1.000000
v 5.000000 0.000000 1.000000
v 4.500000 0.067237 1.500000
v 5.000000 0.000000 2.000000
v 6.000000 0.000000 2.000000
v 5.000000 0.000000 1.000000
v 6.000000 0.000000 1.000000
v 5.500000 0.067237 1.500000
v 6.000000 0.000000 2.000000
v 7.000000 0.000000 2.000000
v 6.000000 0.000000 1.000000
v 7.000000 0.000000 1.000000
v 6.500000 0.067237 1.500000
v 0.000000 0.000000 3.000000
v 1.000000 0.000000 3.000000
v 0.000000 0.000000 2.000000
v 1.000000 0.000000 2.000000
v 0.500000 0.067237 2.500000
v 1.000000 0.000000 3.000000
v 2.000000 0.000000 3.000000
v 1.000000 0.000000 2.000000
v 2.000000 0.000000 2.000000
v 1.500000 0.067237 2.500000
v 2.000000 0.000000 3.000000
v 3.000000 0.000000 3.000000
v 2.000000 0.000000 2.000000
v 3.000000 0.000000 2.000000
v 2.500000 0.067237 2.500000
v 3.000000 0.000000 3.000000
v 4.000000 0.000000 3.000000
v 3.000000 0.000000 2.000000
v 4.000000 0.000000 2.000000
v 3.500000 0.067237 2.500000
v 4.000000 0.000000 3.000000
v 5.000000 0.000000 3.000000
v 4.000000 0.000000 2.000000
v 5.000000 0.000000 2.000000
v 4.500000 0.067237 2.500000
v 5.000000 0.000000 3.000000
v 6.000000 0.000000 3.000000
v 5.000000 0.000000 2.000000
v 6.000000 0.000000 2.000000
v 5.500000 0.067237 2.500000
v 6.000000 0.000000 3.000000
v 7.000000 0.000000 3.000000
v 6.000000 0.000000 2.000000
v 7.000000 0.000000 2.000000
v 6.500000 0.067237 2.500000
v 0.000000 0.000000 4.000000
v 1.000000 0.000000 4.000000
v 0.000000 0.000000 3.000000
v 1.000000 0.000000 3.000000
v 0.500000 0.067237 3.500000
v 1.000000 0.000000 4.000000
v 2.000000 0.000000 4.000000
v 1.000000 0.000000 3.000000
v 2.000000 0.000000 3.000000
v 1.500000 0.067237 3.500000
v 2.000000 0.000000 4.000000
v 3.000000 0.000000 4.000000
v 2.000000 0.000000 3.000000
v 3.000000 0.000000 3.000000
v 2.500000 0.067237 3.500000
v 3.000000 0.000000 4.000000
v 4.000000 0.000000 4.000000
v 3.000000 0.000000 3.000000
v 4.000000 0.000000 3.000000
v 3.500000 0.067237 3.500000
v 4.000000 0.000000 4.000000
v 5.000000 0.000000 4.000000
v 4.000000 0.000000 3.000000
v 5.000000 0.000000 3.000000
v 4.500000 0.067237 3.500000
v 5.000000 0.000000 4.000000
v 6.000000 0.000000 4.000000
v 5.000000 0.000000 3.000000
v 6.000000 0.000000 3.000000
v 5.500000 0.067237 3.500000
v 6.000000 0.000000 4.000000
v 7.000000 0.000000 4.000000
v 6.000000 0.000000 3.000000
v 7.000000 0.000000 3.000000
v 6.500000 0.067237 3.500000
v 0.000000 0.000000 5.000000
v 1.000000 0.000000 5.000000
v 0.000000 0.000000 4.000000
v 1.000000 0.000000 4.000000
v 0.500000 0.067237 4.500000
v 1.000000 0.000000 5.000000
v 2.000000 0.000000 5.000000
v 1.000000 0.000000 4.000000
v 2.000000 0.000000 4.000000
v 1.500000 0.067237 4.500000
v 2.000000 0.000000 5.000000
v 3.000000 0.000000 5.000000
v 2.000000 0.000000 4.000000
v 3.000000 0.000000 4.000000
v 2.500000 0.067237 4.500000
v 3.000000 0.000000 5.000000
v 4.000000 0.000000 5.000000
v 3.000000 0.000000 4.000000
v 4.000000 0.000000 4.000000
v 3.500000 0.067237 4.500000
v 4.000000 0.000000 5.000000
v 5.000000 0.000000 5.000000
v 4.000000 0.000000 4.000000
v 5.000000 0.000000 4.000000
v 4.500000 0.067237 4.500000
v 5.000000 0.000000 5.000000
v 6.000000 0.000000 5.000000
v 5.000000 0.000000 4.000000
v 6.000000 0.000000 4.000000
v 5.500000 0.067237 4.500000
v 6.000000 0.000000 5.000000
v 7.000000 0.000000 5.000000
v 6.000000 0.000000 4.000000
v 7.000000 0.000000 4.000000
v 6.500000 0.067237 4.500000
v 0.000000 0.000000 6.000000
v 1.000000 0.000000 6.000000
v 0.000000 0.000000 5.000000
v 1.000000 0.000000 5.000000
v 0.500000 0.067237 5.500000
v 1.000000 0.000000 6.000000
v 2.000000 0.000000 6.000000
v 1.000000 0.000000 5.000000
v 2.000000 0.000000 5.000000
v 1.500000 0.067237 5.500000
v 2.000000 0.000000 6.000000
v 3.000000 0.000000 6.000000
v 2.000000 0.000000 5.000000
v 3.000000 0.000000 5.000000
v 2.500000 0.067237 5.500000
v 3.000000 0.000000 6.000000
v 4.000000 0.000000 6.000000
v 3.000000 0.000000 5.000000
v 4.000000 0.000000 5.000000
v 3.500000 0.067237 5.500000
v 4.000000 0.000000 6.000000
v 5.000000 0.000000 6.000000
v 4.000000 0.000000 5.000000
v 5.000000 0.000000 5.000000
v 4.500000 0.067237 5.500000
v 5.000000 0.000000 6.000000
v 6.000000 0.000000 6.000000
v 5.000000 0.000000 5.000000
v 6.000000 0.000000 5.000000
v 5.500000 0.067237 5.500000
v 6.000000 0.000000 6.000000
v 7.000000 0.000000 6.000000
v 6.000000 0.000000 5.000000
v 7.000000 0.000000 5.000000
v 6.500000 0.067237 5.500000
v 0.000000 0.000000 7.000000
v 1.000000 0.000000 7.000000
v 0.000000 0.000000 6.000000
v 1.000000 0.000000 6.000000
v 0.500000 0.067237 6.500000
v 1.000000 0.000000 7.000000
v 2.000000 0.000000 7.000000
v 1.000000 0.000000 6.000000
v 2.000000 0.000000 6.000000
v 1.500000 0.067237 6.500000
v 2.000000 0.000000 7.000000
v 3.000000 0.000000 7.000000
v 2.000000 0.000000 6.000000
v 3.000000 0.000000 6.000000
v 2.500000 0.067237 6.500000
v 3.000000 0.000000 7.000000
v 4.000000 0.000000 7.000000
v 3.000000 0.000000 6.000000
v 4.000000 0.000000 6.000000
v 3.500000 0.067237 6.500000
v 4.000000 0.000000 7.000000
v 5.000000 0.000000 7.000000
v 4.000000 0.000000 6.000000
v 5.000000 0.000000 6.000000
v 4.500000 0.067237 6.500000
v 5.000000 0.000000 7.000000
v 6.000000 0.000000 7.000000
v 5.000000 0.000000 6.000000
v 6.000000 0.000000 6.000000
v 5.500000 0.067237 6.500000
v 6.000000 0.000000 7.000000
v 7.000000 0.000000 7.000000
v 6.000000 0.000000 6.000000
v 7.000000 0.000000 6.000000
v 6.500000 0.067237 6.500000
vn 0.1333 0.9911 -0.0000
vn -0.0000 0.9911 0.1333
vn -0.1333 0.9911 -0.0000
vn -0.0000 0.9911 -0.1333
vt 0.500000 0.071429
vt 0.429265 0.000693
vt 0.570735 0.000693
vt 0.429265 0.142164
vt 0.570735 0.142164
vt 0.214286 0.642857
vt 0.143550 0.572122
vt 0.285021 0.572122
vt 0.143550 0.713593
vt 0.285021 0.713593
vt 0.357143 0.642857
vt 0.427878 0.572122
vt 0.427878 0.713593
vt 0.286407 0.572122
vt 0.286407 0.713593
vt 0.071429 0.500000
vt 0.000693 0.429265
vt 0.142164 0.429265
vt 0.000693 0.570736
vt 0.142164 0.570736
vt 0.500000 0.642857
vt 0.570735 0.572122
vt 0.570735 0.713593
vt 0.429265 0.572122
vt 0.429265 0.713593
vt 0.642857 0.071429
vt 0.572122 0.000693
vt 0.713593 0.000693
vt 0.572122 0.142164
vt 0.713593 0.142164
vt 0.642857 0.214286
vt 0.572122 0.143550
vt 0.713593 0.143550
vt 0.572122 0.285021
vt 0.713593 0.285021
vt 0.214286 0.500000
vt 0.143550 0.429265
vt 0.285021 0.429265
vt 0.143550 0.570736
vt 0.285021 0.570735
vt 0.642857 0.357143
vt 0.572122 0.286407
vt 0.713593 0.286407
vt 0.572122 0.427878
vt 0.713593 0.427878
vt 0.500000 0.500000
vt 0.429265 0.570736
vt 0.429265 0.429265
vt 0.570735 0.570736
vt 0.570735 0.429265
vt 0.357143 0.357143
vt 0.286407 0.286408
vt 0.427878 0.286408
vt 0.286407 0.427878
vt 0.427878 0.427878
vt 0.642857 0.500000
vt 0.572122 0.429265
vt 0.713593 0.429265
vt 0.572122 0.570735
vt 0.713593 0.570735
vt 0.642857 0.642857
vt 0.572122 0.572122
vt 0.713593 0.572122
vt 0.572122 0.713592
vt 0.713593 0.713592
vt 0.071429 0.785714
vt 0.142164 0.714979
vt 0.142164 0.856450
vt 0.000693 0.714979
vt 0.000693 0.856450
vt 0.928571 0.642857
vt 0.857836 0.713592
vt 0.857836 0.572122
vt 0.999307 0.713592
vt 0.999307 0.572122
vt 0.928571 0.785714
vt 0.857836 0.856449
vt 0.857836 0.714979
vt 0.999307 0.856449
vt 0.999307 0.714979
vt 0.928571 0.928571
vt 0.857836 0.857836
vt 0.999307 0.857836
vt 0.857836 0.999307
vt 0.999307 0.999307
vt 0.214286 0.785714
vt 0.285021 0.714979
vt 0.285021 0.856450
vt 0.143550 0.714979
vt 0.143550 0.856450
vt 0.357143 0.785714
vt 0.427878 0.714979
vt 0.427878 0.856450
vt 0.286407 0.714979
vt 0.286407 0.856450
vt 0.500000 0.785714
vt 0.429265 0.714979
vt 0.570735 0.714979
vt 0.429265 0.856450
vt 0.570735 0.856450
vt 0.642857 0.785714
vt 0.713592 0.714979
vt 0.713592 0.856450
vt 0.572122 0.714979
vt 0.572122 0.856450
vt 0.214286 0.214286
vt 0.143550 0.143550
vt 0.285021 0.143550
vt 0.143550 0.285021
vt 0.285021 0.285021
vt 0.785714 0.071429
vt 0.714979 0.000693
vt 0.856450 0.000693
vt 0.714979 0.142164
vt 0.856450 0.142164
vt 0.785714 0.214286
vt 0.714979 0.143550
vt 0.856450 0.143550
vt 0.714979 0.285021
vt 0.856450 0.285021
vt 0.785714 0.357143
vt 0.714979 0.286407
vt 0.856450 0.286407
vt 0.714979 0.427878
vt 0.856450 0.427878
vt 0.357143 0.071429
vt 0.286408 0.142164
vt 0.286408 0.000693
vt 0.427878 0.142164
vt 0.427878 0.000693
vt 0.785714 0.500000
vt 0.714979 0.429265
vt 0.856450 0.429265
vt 0.714979 0.570735
vt 0.856450 0.570735
vt 0.785714 0.642857
vt 0.714979 0.572122
vt 0.856450 0.572122
vt 0.714979 0.713592
vt 0.856450 0.713592
vt 0.500000 0.214286
vt 0.429265 0.143550
vt 0.570735 0.143550
vt 0.429265 0.285021
vt 0.570735 0.285021
vt 0.071429 0.071429
vt 0.142164 0.000693
vt 0.142164 0.142164
vt 0.000693 0.000693
vt 0.000693 0.142164
vt 0.214286 0.071429
vt 0.143550 0.000693
vt 0.285021 0.000693
vt 0.143550 0.142164
vt 0.285021 0.142164
vt 0.785714 0.785714
vt 0.714979 0.714979
vt 0.856450 0.714979
vt 0.714979 0.856449
vt 0.856450 0.856449
vt 0.071429 0.928571
vt 0.142164 0.857836
vt 0.142164 0.999307
vt 0.000693 0.857836
vt 0.000693 0.999307
vt 0.071429 0.357143
vt 0.000693 0.286408
vt 0.142164 0.286408
vt 0.000693 0.427878
vt 0.142164 0.427878
vt 0.214286 0.928571
vt 0.285021 0.857836
vt 0.285021 0.999307
vt 0.143550 0.857836
vt 0.143550 0.999307
vt 0.500000 0.357143
vt 0.429265 0.286407
vt 0.570735 0.286407
vt 0.429265 0.427878
vt 0.570735 0.427878
vt 0.357143 0.928571
vt 0.427878 0.857836
vt 0.427878 0.999307
vt 0.286407 0.857836
vt 0.286407 0.999307
vt 0.500000 0.928571
vt 0.570735 0.857836
vt 0.570735 0.999307
vt 0.429265 0.857836
vt 0.429265 0.999307
vt 0.642857 0.928571
vt 0.713592 0.857836
vt 0.713592 0.999307
vt 0.572122 0.857836
vt 0.572122 0.999307
vt 0.214286 0.357143
vt 0.143550 0.286408
vt 0.285021 0.286408
vt 0.143550 0.427878
vt 0.285021 0.427878
vt 0.785714 0.928571
vt 0.856449 0.857836
vt 0.856449 0.999307
vt 0.714979 0.857836
vt 0.714979 0.999307
vt 0.357143 0.214286
vt 0.427878 0.285021
vt 0.286408 0.285021
vt 0.427878 0.143550
vt 0.286408 0.143550
vt 0.357143 0.500000
vt 0.286407 0.429265
vt 0.427878 0.429265
vt 0.286407 0.570735
vt 0.427878 0.570735
vt 0.928571 0.071429
vt 0.857836 0.000693
vt 0.999307 0.000693
vt 0.857836 0.142164
vt 0.999307 0.142164
vt 0.071429 0.642857
vt 0.000693 0.713593
vt 0.000693 0.572122
vt 0.142164 0.713593
vt 0.142164 0.572122
vt 0.928571 0.214286
vt 0.857836 0.143550
vt 0.999307 0.143550
vt 0.857836 0.285021
vt 0.999307 0.285021
vt 0.928571 0.357143
vt 0.857836 0.286407
vt 0.999307 0.286407
vt 0.857836 0.427878
vt 0.999307 0.427878
vt 0.071429 0.214286
vt 0.000693 0.143550
vt 0.142164 0.143551
vt 0.000693 0.285021
vt 0.142164 0.285021
vt 0.928571 0.500000
vt 0.857836 0.429265
vt 0.999307 0.429265
vt 0.857836 0.570735
vt 0.999307 0.570735
s 0
f 5/1/1 2/2/1 4/3/1
f 2/2/2 5/1/2 1/4/2
f 1/4/3 5/1/3 3/5/3
f 3/5/4 5/1/4 4/3/4
f 10/6/1 7/7/1 9/8/1
f 7/7/2 10/6/2 6/9/2
f 6/9/3 10/6/3 8/10/3
f 8/10/4 10/6/4 9/8/4
f 15/11/1 12/12/1 14/13/1
f 12/12/2 15/11/2 11/14/2
f 11/14/3 15/11/3 13/15/3
f 13/15/4 15/11/4 14/13/4
f 20/16/1 17/17/1 19/18/1
f 17/17/2 20/16/2 16/19/2
f 16/19/3 20/16/3 18/20/3
f 18/20/4 20/16/4 19/18/4
f 25/21/1 22/22/1 24/23/1
f 22/22/2 25/21/2 21/24/2
f 21/24/3 25/21/3 23/25/3
f 23/25/4 25/21/4 24/23/4
f 30/26/1 27/27/1 29/28/1
f 27/27/2 30/26/2 26/29/2
f 26/29/3 30/26/3 28/30/3
f 28/30/4 30/26/4 29/28/4
f 35/31/1 32/32/1 34/33/1
f 32/32/2 35/31/2 31/34/2
f 31/34/3 35/31/3 33/35/3
f 33/35/4 35/31/4 34/33/4
f 40/36/1 37/37/1 39/38/1
f 37/37/2 40/36/2 36/39/2
f 36/39/3 40/36/3 38/40/3
f 38/40/4 40/36/4 39/38/4
f 45/41/1 42/42/1 44/43/1
f 42/42/2 45/41/2 41/44/2
f 41/44/3 45/41/3 43/45/3
f 43/45/4 45/41/4 44/43/4
f 50/46/1 47/47/1 49/48/1
f 47/47/2 50/46/2 46/49/2
f 46/49/3 50/46/3 48/50/3
f 48/50/4 50/46/4 49/48/4
f 55/51/1 52/52/1 54/53/1
f 52/52/2 55/51/2 51/54/2
f 51/54/3 55/51/3 53/55/3
f 53/55/4 55/51/4 54/53/4
f 60/56/1 57/57/1 59/58/1
f 57/57/2 60/56/2 56/59/2
f 56/59/3 60/56/3 58/60/3
f 58/60/4 60/56/4 59/58/4
f 65/61/1 62/62/1 64/63/1
f 62/62/2 65/61/2 61/64/2
f 61/64/3 65/61/3 63/65/3
f 63/65/4 65/61/4 64/63/4
f 70/66/1 67/67/1 69/68/1
f 67/67/2 70/66/2 66/69/2
f 66/69/3 70/66/3 68/70/3
f 68/70/4 70/66/4 69/68/4
f 75/71/1 72/72/1 74/73/1
f 72/72/2 75/71/2 71/74/2
f 71/74/3 75/71/3 73/75/3
f 73/75/4 75/71/4 74/73/4
f 80/76/1 77/77/1 79/78/1
f 77/77/2 80/76/2 76/79/2
f 76/79/3 80/76/3 78/80/3
f 78/80/4 80/76/4 79/78/4
f 85/81/1 82/82/1 84/83/1
f 82/82/2 85/81/2 81/84/2
f 81/84/3 85/81/3 83/85/3
f 83/85/4 85/81/4 84/83/4
f 90/86/1 87/87/1 89/88/1
f 87/87/2 90/86/2 86/89/2
f 86/89/3 90/86/3 88/90/3
f 88/90/4 90/86/4 89/88/4
f 95/91/1 92/92/1 94/93/1
f 92/92/2 95/91/2 91/94/2
f 91/94/3 95/91/3 93/95/3
f 93/95/4 95/91/4 94/93/4
f 100/96/1 97/97/1 99/98/1
f 97/97/2 100/96/2 96/99/2
f 96/99/3 100/96/3 98/100/3
f 98/100/4 100/96/4 99/98/4
f 105/101/1 102/102/1 104/103/1
f 102/102/2 105/101/2 101/104/2
f 101/104/3 105/101/3 103/105/3
f 103/105/4 105/101/4 104/103/4
f 110/106/1 107/107/1 109/108/1
f 107/107/2 110/106/2 106/109/2
f 106/109/3 110/106/3 108/110/3
f 108/110/4 110/106/4 109/108/4
f 115/111/1 112/112/1 114/113/1
f 112/112/2 115/111/2 111/114/2
f 111/114/3 115/111/3 113/115/3
f 113/115/4 115/111/4 114/113/4
f 120/116/1 117/117/1 119/118/1
f 117/117/2 120/116/2 116/119/2
f 116/119/3 120/116/3 118/120/3
f 118/120/4 120/116/4 119/118/4
f 125/121/1 122/122/1 124/123/1
f 122/122/2 125/121/2 121/124/2
f 121/124/3 125/121/3 123/125/3
f 123/125/4 125/121/4 124/123/4
f 130/126/1 127/127/1 129/128/1
f 127/127/2 130/126/2 126/129/2
f 126/129/3 130/126/3 128/130/3
f 128/130/4 130/126/4 129/128/4
f 135/131/1 132/132/1 134/133/1
f 132/132/2 135/131/2 131/134/2
f 131/134/3 135/131/3 133/135/3
f 133/135/4 135/131/4 134/133/4
f 140/136/1 137/137/1 139/138/1
f 137/137/2 140/136/2 136/139/2
f 136/139/3 140/136/3 138/140/3
f 138/140/4 140/136/4 139/138/4
f 145/141/1 142/142/1 144/143/1
f 142/142/2 145/141/2 141/144/2
f 141/144/3 145/141/3 143/145/3
f 143/145/4 145/141/4 144/143/4
f 150/146/1 147/147/1 149/148/1
f 147/147/2 150/146/2 146/149/2
f 146/149/3 150/146/3 148/150/3
f 148/150/4 150/146/4 149/148/4
f 155/151/1 152/152/1 154/153/1
f 152/152/2 155/151/2 151/154/2
f 151/154/3 155/151/3 153/155/3
f 153/155/4 155/151/4 154/153/4
f 160/156/1 157/157/1 159/158/1
f 157/157/2 160/156/2 156/159/2
f 156/159/3 160/156/3 158/160/3
f 158/160/4 160/156/4 159/158/4
f 165/161/1 162/162/1 164/163/1
f 162/162/2 165/161/2 161/164/2
f 161/164/3 165/161/3 163/165/3
f 163/165/4 165/161/4 164/163/4
f 170/166/1 167/167/1 169/168/1
f 167/167/2 170/166/2 166/169/2
f 166/169/3 170/166/3 168/170/3
f 168/170/4 170/166/4 169/168/4
f 175/171/1 172/172/1 174/173/1
f 172/172/2 175/171/2 171/174/2
f 171/174/3 175/171/3 173/175/3
f 173/175/4 175/171/4 174/173/4
f 180/176/1 177/177/1 179/178/1
f 177/177/2 180/176/2 176/179/2
f 176/179/3 180/176/3 178/180/3
f 178/180/4 180/176/4 179/178/4
f 185/181/1 182/182/1 184/183/1
f 182/182/2 185/181/2 181/184/2
f 181/184/3 185/181/3 183/185/3
f 183/185/4 185/181/4 184/183/4
f 190/186/1 187/187/1 189/188/1
f 187/187/2 190/186/2 186/189/2
f 186/189/3 190/186/3 188/190/3
f 188/190/4 190/186/4 189/188/4
f 195/191/1 192/192/1 194/193/1
f 192/192/2 195/191/2 191/194/2
f 191/194/3 195/191/3 193/195/3
f 193/195/4 195/191/4 194/193/4
f 200/196/1 197/197/1 199/198/1
f 197/197/2 200/196/2 196/199/2
f 196/199/3 200/196/3 198/200/3
f 198/200/4 200/196/4 199/198/4
f 205/201/1 202/202/1 204/203/1
f 202/202/2 205/201/2 201/204/2
f 201/204/3 205/201/3 203/205/3
f 203/205/4 205/201/4 204/203/4
f 210/206/1 207/207/1 209/208/1
f 207/207/2 210/206/2 206/209/2
f 206/209/3 210/206/3 208/210/3
f 208/210/4 210/206/4 209/208/4
f 215/211/1 212/212/1 214/213/1
f 212/212/2 215/211/2 211/214/2
f 211/214/3 215/211/3 213/215/3
f 213/215/4 215/211/4 214/213/4
f 220/216/1 217/217/1 219/218/1
f 217/217/2 220/216/2 216/219/2
f 216/219/3 220/216/3 218/220/3
f 218/220/4 220/216/4 219/218/4
f 225/221/1 222/222/1 224/223/1
f 222/222/2 225/221/2 221/224/2
f 221/224/3 225/221/3 223/225/3
f 223/225/4 225/221/4 224/223/4
f 230/226/1 227/227/1 229/228/1
f 227/227/2 230/226/2 226/229/2
f 226/229/3 230/226/3 228/230/3
f 228/230/4 230/226/4 229/228/4
f 235/231/1 232/232/1 234/233/1
f 232/232/2 235/231/2 231/234/2
f 231/234/3 235/231/3 233/235/3
f 233/235/4 235/231/4 234/233/4
f 240/236/1 237/237/1 239/238/1
f 237/237/2 240/236/2 236/239/2
f 236/239/3 240/236/3 238/240/3
f 238/240/4 240/236/4 239/238/4
f 245/241/1 242/242/1 244/243/1
f 242/242/2 245/241/2 241/244/2
f 241/244/3 245/241/3 243/245/3
f 243/245/4 245/241/4 244/243/4
